<svg xmlns="http://www.w3.org/2000/svg" width="960" height="540" viewBox="0 0 960 540" role="img" aria-labelledby="title desc">
  <title id="title">Field signal dashboard</title>
  <desc id="desc">Hourly average signals across four public-safe zones</desc>
  <defs>
    <filter id="softShadow" x="-20%" y="-20%" width="140%" height="140%">
      <feDropShadow dx="0" dy="18" stdDeviation="18" flood-color="#172420" flood-opacity="0.12"/>
    </filter>
    <linearGradient id="paper" x1="0" y1="0" x2="1" y2="1">
      <stop offset="0" stop-color="#ffffff"/>
      <stop offset="1" stop-color="#eef5f1"/>
    </linearGradient>
  </defs>
  <rect width="960" height="540" fill="#f7faf7"/>
  <rect x="28" y="28" width="904" height="484" rx="20" fill="url(#paper)" stroke="#d8e3de" filter="url(#softShadow)"/>
  <text x="60" y="72" fill="#172420" font-family="Georgia, serif" font-size="26" font-weight="700">Field signal dashboard</text>
  <text x="60" y="100" fill="#61706a" font-family="Arial, sans-serif" font-size="13">Hourly average signals across four public-safe zones</text>
  <line x1="86" y1="148.0" x2="866" y2="148.0" stroke="#d8e3de" stroke-width="1"/>
  <text x="72" y="152.0" text-anchor="end" fill="#61706a" font-family="Arial" font-size="12">88</text>
  <line x1="86" y1="223.0" x2="866" y2="223.0" stroke="#d8e3de" stroke-width="1"/>
  <text x="72" y="227.0" text-anchor="end" fill="#61706a" font-family="Arial" font-size="12">65</text>
  <line x1="86" y1="298.0" x2="866" y2="298.0" stroke="#d8e3de" stroke-width="1"/>
  <text x="72" y="302.0" text-anchor="end" fill="#61706a" font-family="Arial" font-size="12">42</text>
  <line x1="86" y1="373.0" x2="866" y2="373.0" stroke="#d8e3de" stroke-width="1"/>
  <text x="72" y="377.0" text-anchor="end" fill="#61706a" font-family="Arial" font-size="12">19</text>
  <line x1="86" y1="448.0" x2="866" y2="448.0" stroke="#d8e3de" stroke-width="1"/>
  <text x="72" y="452.0" text-anchor="end" fill="#61706a" font-family="Arial" font-size="12">-4</text>
  <text x="86.0" y="482" text-anchor="middle" fill="#61706a" font-family="Arial" font-size="12">0</text>
  <text x="119.9" y="482" text-anchor="middle" fill="#61706a" font-family="Arial" font-size="12">1</text>
  <text x="153.8" y="482" text-anchor="middle" fill="#61706a" font-family="Arial" font-size="12">2</text>
  <text x="187.7" y="482" text-anchor="middle" fill="#61706a" font-family="Arial" font-size="12">3</text>
  <text x="221.7" y="482" text-anchor="middle" fill="#61706a" font-family="Arial" font-size="12">4</text>
  <text x="255.6" y="482" text-anchor="middle" fill="#61706a" font-family="Arial" font-size="12">5</text>
  <text x="289.5" y="482" text-anchor="middle" fill="#61706a" font-family="Arial" font-size="12">6</text>
  <text x="323.4" y="482" text-anchor="middle" fill="#61706a" font-family="Arial" font-size="12">7</text>
  <text x="357.3" y="482" text-anchor="middle" fill="#61706a" font-family="Arial" font-size="12">8</text>
  <text x="391.2" y="482" text-anchor="middle" fill="#61706a" font-family="Arial" font-size="12">9</text>
  <text x="425.1" y="482" text-anchor="middle" fill="#61706a" font-family="Arial" font-size="12">10</text>
  <text x="459.0" y="482" text-anchor="middle" fill="#61706a" font-family="Arial" font-size="12">11</text>
  <text x="493.0" y="482" text-anchor="middle" fill="#61706a" font-family="Arial" font-size="12">12</text>
  <text x="526.9" y="482" text-anchor="middle" fill="#61706a" font-family="Arial" font-size="12">13</text>
  <text x="560.8" y="482" text-anchor="middle" fill="#61706a" font-family="Arial" font-size="12">14</text>
  <text x="594.7" y="482" text-anchor="middle" fill="#61706a" font-family="Arial" font-size="12">15</text>
  <text x="628.6" y="482" text-anchor="middle" fill="#61706a" font-family="Arial" font-size="12">16</text>
  <text x="662.5" y="482" text-anchor="middle" fill="#61706a" font-family="Arial" font-size="12">17</text>
  <text x="696.4" y="482" text-anchor="middle" fill="#61706a" font-family="Arial" font-size="12">18</text>
  <text x="730.3" y="482" text-anchor="middle" fill="#61706a" font-family="Arial" font-size="12">19</text>
  <text x="764.3" y="482" text-anchor="middle" fill="#61706a" font-family="Arial" font-size="12">20</text>
  <text x="798.2" y="482" text-anchor="middle" fill="#61706a" font-family="Arial" font-size="12">21</text>
  <text x="832.1" y="482" text-anchor="middle" fill="#61706a" font-family="Arial" font-size="12">22</text>
  <text x="866.0" y="482" text-anchor="middle" fill="#61706a" font-family="Arial" font-size="12">23</text>
  <path d="M86.0,384.8 L119.9,383.9 L153.8,381.7 L187.7,378.3 L221.7,373.5 L255.6,367.2 L289.5,362.2 L323.4,356.3 L357.3,350.0 L391.2,345.9 L425.1,341.0 L459.0,338.5 L493.0,337.0 L526.9,338.0 L560.8,339.9 L594.7,343.8 L628.6,348.3 L662.5,355.9 L696.4,361.6 L730.3,367.9 L764.3,373.1 L798.2,378.0 L832.1,381.8 L866.0,383.7" fill="none" stroke="#2f9aa3" stroke-width="4" stroke-linecap="round" stroke-linejoin="round"/>
  <circle cx="86.0" cy="384.8" r="5" fill="#fff" stroke="#2f9aa3" stroke-width="3"/>
  <circle cx="119.9" cy="383.9" r="5" fill="#fff" stroke="#2f9aa3" stroke-width="3"/>
  <circle cx="153.8" cy="381.7" r="5" fill="#fff" stroke="#2f9aa3" stroke-width="3"/>
  <circle cx="187.7" cy="378.3" r="5" fill="#fff" stroke="#2f9aa3" stroke-width="3"/>
  <circle cx="221.7" cy="373.5" r="5" fill="#fff" stroke="#2f9aa3" stroke-width="3"/>
  <circle cx="255.6" cy="367.2" r="5" fill="#fff" stroke="#2f9aa3" stroke-width="3"/>
  <circle cx="289.5" cy="362.2" r="5" fill="#fff" stroke="#2f9aa3" stroke-width="3"/>
  <circle cx="323.4" cy="356.3" r="5" fill="#fff" stroke="#2f9aa3" stroke-width="3"/>
  <circle cx="357.3" cy="350.0" r="5" fill="#fff" stroke="#2f9aa3" stroke-width="3"/>
  <circle cx="391.2" cy="345.9" r="5" fill="#fff" stroke="#2f9aa3" stroke-width="3"/>
  <circle cx="425.1" cy="341.0" r="5" fill="#fff" stroke="#2f9aa3" stroke-width="3"/>
  <circle cx="459.0" cy="338.5" r="5" fill="#fff" stroke="#2f9aa3" stroke-width="3"/>
  <circle cx="493.0" cy="337.0" r="5" fill="#fff" stroke="#2f9aa3" stroke-width="3"/>
  <circle cx="526.9" cy="338.0" r="5" fill="#fff" stroke="#2f9aa3" stroke-width="3"/>
  <circle cx="560.8" cy="339.9" r="5" fill="#fff" stroke="#2f9aa3" stroke-width="3"/>
  <circle cx="594.7" cy="343.8" r="5" fill="#fff" stroke="#2f9aa3" stroke-width="3"/>
  <circle cx="628.6" cy="348.3" r="5" fill="#fff" stroke="#2f9aa3" stroke-width="3"/>
  <circle cx="662.5" cy="355.9" r="5" fill="#fff" stroke="#2f9aa3" stroke-width="3"/>
  <circle cx="696.4" cy="361.6" r="5" fill="#fff" stroke="#2f9aa3" stroke-width="3"/>
  <circle cx="730.3" cy="367.9" r="5" fill="#fff" stroke="#2f9aa3" stroke-width="3"/>
  <circle cx="764.3" cy="373.1" r="5" fill="#fff" stroke="#2f9aa3" stroke-width="3"/>
  <circle cx="798.2" cy="378.0" r="5" fill="#fff" stroke="#2f9aa3" stroke-width="3"/>
  <circle cx="832.1" cy="381.8" r="5" fill="#fff" stroke="#2f9aa3" stroke-width="3"/>
  <circle cx="866.0" cy="383.7" r="5" fill="#fff" stroke="#2f9aa3" stroke-width="3"/>
  <circle cx="88" cy="482" r="6" fill="#2f9aa3"/><text x="100" y="487" fill="#314944" font-family="Arial" font-size="12">Temperature</text>
  <path d="M86.0,218.5 L119.9,219.0 L153.8,219.1 L187.7,219.2 L221.7,218.7 L255.6,218.5 L289.5,218.1 L323.4,220.0 L357.3,217.8 L391.2,218.3 L425.1,227.4 L459.0,225.4 L493.0,228.9 L526.9,229.5 L560.8,229.9 L594.7,229.6 L628.6,230.9 L662.5,222.7 L696.4,224.4 L730.3,221.3 L764.3,222.2 L798.2,222.1 L832.1,221.6 L866.0,221.6" fill="none" stroke="#d6a74a" stroke-width="4" stroke-linecap="round" stroke-linejoin="round"/>
  <circle cx="86.0" cy="218.5" r="5" fill="#fff" stroke="#d6a74a" stroke-width="3"/>
  <circle cx="119.9" cy="219.0" r="5" fill="#fff" stroke="#d6a74a" stroke-width="3"/>
  <circle cx="153.8" cy="219.1" r="5" fill="#fff" stroke="#d6a74a" stroke-width="3"/>
  <circle cx="187.7" cy="219.2" r="5" fill="#fff" stroke="#d6a74a" stroke-width="3"/>
  <circle cx="221.7" cy="218.7" r="5" fill="#fff" stroke="#d6a74a" stroke-width="3"/>
  <circle cx="255.6" cy="218.5" r="5" fill="#fff" stroke="#d6a74a" stroke-width="3"/>
  <circle cx="289.5" cy="218.1" r="5" fill="#fff" stroke="#d6a74a" stroke-width="3"/>
  <circle cx="323.4" cy="220.0" r="5" fill="#fff" stroke="#d6a74a" stroke-width="3"/>
  <circle cx="357.3" cy="217.8" r="5" fill="#fff" stroke="#d6a74a" stroke-width="3"/>
  <circle cx="391.2" cy="218.3" r="5" fill="#fff" stroke="#d6a74a" stroke-width="3"/>
  <circle cx="425.1" cy="227.4" r="5" fill="#fff" stroke="#d6a74a" stroke-width="3"/>
  <circle cx="459.0" cy="225.4" r="5" fill="#fff" stroke="#d6a74a" stroke-width="3"/>
  <circle cx="493.0" cy="228.9" r="5" fill="#fff" stroke="#d6a74a" stroke-width="3"/>
  <circle cx="526.9" cy="229.5" r="5" fill="#fff" stroke="#d6a74a" stroke-width="3"/>
  <circle cx="560.8" cy="229.9" r="5" fill="#fff" stroke="#d6a74a" stroke-width="3"/>
  <circle cx="594.7" cy="229.6" r="5" fill="#fff" stroke="#d6a74a" stroke-width="3"/>
  <circle cx="628.6" cy="230.9" r="5" fill="#fff" stroke="#d6a74a" stroke-width="3"/>
  <circle cx="662.5" cy="222.7" r="5" fill="#fff" stroke="#d6a74a" stroke-width="3"/>
  <circle cx="696.4" cy="224.4" r="5" fill="#fff" stroke="#d6a74a" stroke-width="3"/>
  <circle cx="730.3" cy="221.3" r="5" fill="#fff" stroke="#d6a74a" stroke-width="3"/>
  <circle cx="764.3" cy="222.2" r="5" fill="#fff" stroke="#d6a74a" stroke-width="3"/>
  <circle cx="798.2" cy="222.1" r="5" fill="#fff" stroke="#d6a74a" stroke-width="3"/>
  <circle cx="832.1" cy="221.6" r="5" fill="#fff" stroke="#d6a74a" stroke-width="3"/>
  <circle cx="866.0" cy="221.6" r="5" fill="#fff" stroke="#d6a74a" stroke-width="3"/>
  <circle cx="253" cy="482" r="6" fill="#d6a74a"/><text x="265" y="487" fill="#314944" font-family="Arial" font-size="12">Soil moisture</text>
  <path d="M86.0,433.8 L119.9,434.7 L153.8,435.0 L187.7,434.4 L221.7,433.2 L255.6,434.7 L289.5,372.9 L323.4,316.8 L357.3,263.7 L391.2,222.6 L425.1,188.3 L459.0,168.8 L493.0,161.0 L526.9,168.3 L560.8,188.4 L594.7,221.0 L628.6,263.8 L662.5,316.0 L696.4,373.3 L730.3,434.8 L764.3,434.3 L798.2,433.9 L832.1,434.3 L866.0,434.0" fill="none" stroke="#5b7fd6" stroke-width="4" stroke-linecap="round" stroke-linejoin="round"/>
  <circle cx="86.0" cy="433.8" r="5" fill="#fff" stroke="#5b7fd6" stroke-width="3"/>
  <circle cx="119.9" cy="434.7" r="5" fill="#fff" stroke="#5b7fd6" stroke-width="3"/>
  <circle cx="153.8" cy="435.0" r="5" fill="#fff" stroke="#5b7fd6" stroke-width="3"/>
  <circle cx="187.7" cy="434.4" r="5" fill="#fff" stroke="#5b7fd6" stroke-width="3"/>
  <circle cx="221.7" cy="433.2" r="5" fill="#fff" stroke="#5b7fd6" stroke-width="3"/>
  <circle cx="255.6" cy="434.7" r="5" fill="#fff" stroke="#5b7fd6" stroke-width="3"/>
  <circle cx="289.5" cy="372.9" r="5" fill="#fff" stroke="#5b7fd6" stroke-width="3"/>
  <circle cx="323.4" cy="316.8" r="5" fill="#fff" stroke="#5b7fd6" stroke-width="3"/>
  <circle cx="357.3" cy="263.7" r="5" fill="#fff" stroke="#5b7fd6" stroke-width="3"/>
  <circle cx="391.2" cy="222.6" r="5" fill="#fff" stroke="#5b7fd6" stroke-width="3"/>
  <circle cx="425.1" cy="188.3" r="5" fill="#fff" stroke="#5b7fd6" stroke-width="3"/>
  <circle cx="459.0" cy="168.8" r="5" fill="#fff" stroke="#5b7fd6" stroke-width="3"/>
  <circle cx="493.0" cy="161.0" r="5" fill="#fff" stroke="#5b7fd6" stroke-width="3"/>
  <circle cx="526.9" cy="168.3" r="5" fill="#fff" stroke="#5b7fd6" stroke-width="3"/>
  <circle cx="560.8" cy="188.4" r="5" fill="#fff" stroke="#5b7fd6" stroke-width="3"/>
  <circle cx="594.7" cy="221.0" r="5" fill="#fff" stroke="#5b7fd6" stroke-width="3"/>
  <circle cx="628.6" cy="263.8" r="5" fill="#fff" stroke="#5b7fd6" stroke-width="3"/>
  <circle cx="662.5" cy="316.0" r="5" fill="#fff" stroke="#5b7fd6" stroke-width="3"/>
  <circle cx="696.4" cy="373.3" r="5" fill="#fff" stroke="#5b7fd6" stroke-width="3"/>
  <circle cx="730.3" cy="434.8" r="5" fill="#fff" stroke="#5b7fd6" stroke-width="3"/>
  <circle cx="764.3" cy="434.3" r="5" fill="#fff" stroke="#5b7fd6" stroke-width="3"/>
  <circle cx="798.2" cy="433.9" r="5" fill="#fff" stroke="#5b7fd6" stroke-width="3"/>
  <circle cx="832.1" cy="434.3" r="5" fill="#fff" stroke="#5b7fd6" stroke-width="3"/>
  <circle cx="866.0" cy="434.0" r="5" fill="#fff" stroke="#5b7fd6" stroke-width="3"/>
  <circle cx="418" cy="482" r="6" fill="#5b7fd6"/><text x="430" y="487" fill="#314944" font-family="Arial" font-size="12">Light</text>
  <line x1="86" y1="448" x2="866" y2="448" stroke="#314944" stroke-width="1.5"/>
  <line x1="86" y1="148" x2="86" y2="448" stroke="#314944" stroke-width="1.5"/>
  <text x="60" y="135" fill="#61706a" font-family="Arial" font-size="12">Normalized sensor value</text>
</svg>
